<?xml version="1.0"?>
<svg xmlns="http://www.w3.org/2000/svg" xmlns:xlink="http://www.w3.org/1999/xlink" xmlns:svgjs="http://svgjs.com/svgjs" version="1.1" width="512" height="512" x="0" y="0" viewBox="0 0 26 26" style="enable-background:new 0 0 512 512" xml:space="preserve" class=""><g>
<g xmlns="http://www.w3.org/2000/svg">
	<circle style="" cx="21.732" cy="5.5" r="1.5" fill="#d9cbc5" data-original="#030104" class=""/>
	<circle style="" cx="17.732" cy="2.5" r="1.5" fill="#d9cbc5" data-original="#030104" class=""/>
	<circle style="" cx="13.732" cy="1.5" r="1.5" fill="#d9cbc5" data-original="#030104" class=""/>
	<circle style="" cx="9.732" cy="3.5" r="1.5" fill="#d9cbc5" data-original="#030104" class=""/>
	<path style="" d="M20.232,5.5V12c0,0.276-0.224,0.5-0.5,0.5s-0.5-0.224-0.5-0.5V2.5h-3V11c0,0.276-0.224,0.5-0.5,0.5   c-0.276,0-0.5-0.224-0.5-0.5V1.5h-3V11c0,0.276-0.224,0.5-0.5,0.5s-0.5-0.224-0.5-0.5V3.5h-3V16l-2.025-2.771   c-0.6-0.925-1.771-1.235-2.629-0.705c-0.855,0.542-1.067,1.724-0.475,2.646c0,0,3.266,4.943,4.658,7.059S11.408,26,15.625,26   c6.982,0,7.607-5.392,7.607-7s0-13.5,0-13.5H20.232z" fill="#d9cbc5" data-original="#030104" class=""/>
</g>
<g xmlns="http://www.w3.org/2000/svg">
</g>
<g xmlns="http://www.w3.org/2000/svg">
</g>
<g xmlns="http://www.w3.org/2000/svg">
</g>
<g xmlns="http://www.w3.org/2000/svg">
</g>
<g xmlns="http://www.w3.org/2000/svg">
</g>
<g xmlns="http://www.w3.org/2000/svg">
</g>
<g xmlns="http://www.w3.org/2000/svg">
</g>
<g xmlns="http://www.w3.org/2000/svg">
</g>
<g xmlns="http://www.w3.org/2000/svg">
</g>
<g xmlns="http://www.w3.org/2000/svg">
</g>
<g xmlns="http://www.w3.org/2000/svg">
</g>
<g xmlns="http://www.w3.org/2000/svg">
</g>
<g xmlns="http://www.w3.org/2000/svg">
</g>
<g xmlns="http://www.w3.org/2000/svg">
</g>
<g xmlns="http://www.w3.org/2000/svg">
</g>
</g></svg>
